<?xml version="1.0" encoding="UTF-8" standalone="no"?>
<svg width="148px" height="160px" viewBox="0 0 148 160" version="1.1" xmlns="http://www.w3.org/2000/svg" xmlns:xlink="http://www.w3.org/1999/xlink">
    <!-- Generator: sketchtool 40.3 (33839) - http://www.bohemiancoding.com/sketch -->
    <title>524E298B-6192-4895-86D3-1B6EB9D5EA80</title>
    <desc>Created with sketchtool.</desc>
    <defs>
        <filter x="-50%" y="-50%" width="200%" height="200%" filterUnits="objectBoundingBox" id="filter-1">
            <feGaussianBlur stdDeviation="24 0" in="SourceGraphic"></feGaussianBlur>
        </filter>
    </defs>
    <g id="Android-UI" stroke="none" stroke-width="1" fill="none" fill-rule="evenodd">
        <g id="Cart---Empty" transform="translate(-114.000000, -112.000000)">
            <g id="content" transform="translate(16.000000, 112.000000)">
                <g id="alert" transform="translate(21.000000, 0.000000)">
                    <g id="mascot_fail" transform="translate(99.000000, 0.000000)">
                        <ellipse id="shadow" fill-opacity="0.26" fill="#000000" filter="url(#filter-1)" cx="52" cy="153" rx="18" ry="7"></ellipse>
                        <g id="sieu-nhan">
                            <path d="M65.5925787,93.6768721 C58.4453447,93.6823567 54.5541957,140.510591 63.0567489,140.510591 C63.3698553,140.510591 64.6200681,140.576406 64.9641532,140.437098 C69.3697702,140.78811 70.1431319,140.999814 73.3505362,141.005298 C78.9964085,141.019558 80.0164936,141.422125 83.7505362,138.27728 C87.5918979,119.995062 76.779217,117.613668 69.9760681,99.3281585 C68.3906213,95.3518555 66.9147064,93.6746783 65.5925787,93.6768721" id="Fill-1" fill="#FEFEFE"></path>
                            <path d="M48.2124085,101.495216 C48.2124085,103.558506 49.8985362,105.228005 51.9796426,105.228005 C54.0607489,105.228005 55.7468766,103.558506 55.7468766,101.495216 C55.7468766,99.4341201 54.0607489,97.7602336 51.9796426,97.7602336 C49.8985362,97.7602336 48.2124085,99.4341201 48.2124085,101.495216" id="Fill-3" fill="#FEFEFE"></path>
                            <path d="M51.7634553,1.42861711 C79.5524766,1.42861711 102.101668,23.7694069 102.101668,51.3358815 C102.101668,78.8694488 79.5524766,101.226692 51.7634553,101.226692 C23.9589447,101.226692 1.4418383,78.8694488 1.4418383,51.3358815 C1.4418383,23.7694069 23.9589447,1.42861711 51.7634553,1.42861711" id="Fill-5" fill="#00B7F1"></path>
                            <path d="M51.7634553,1.42861711 L51.7634553,2.85898927 C65.2635404,2.85898927 77.4791149,8.28102119 86.3334979,17.0563106 C95.1856681,25.8326968 100.657838,37.9425962 100.660051,51.3358815 C100.657838,64.7105194 95.1856681,76.817128 86.3334979,85.5957081 C77.4791149,94.3709975 65.2635404,99.7963201 51.7634553,99.798514 C38.2556255,99.7963201 26.0466894,94.3709975 17.1956255,85.5957081 C8.3512,76.8193219 2.88566809,64.7127133 2.8845617,51.3358815 C2.88566809,37.9425962 8.3512,25.8326968 17.1956255,17.0563106 C26.0466894,8.28102119 38.2556255,2.85898927 51.7634553,2.85898927 L51.7634553,0.000438764468 C37.4678809,0.000438764468 24.5176681,5.74715639 15.1565617,15.0336064 C5.79213617,24.3189594 0.000221276596,37.1615954 0.000221276596,51.3358815 C0.000221276596,65.4915202 5.79213617,78.3308654 15.1565617,87.6162185 C24.5176681,96.9059592 37.4678809,102.658161 51.7634553,102.658161 C66.0512851,102.658161 79.0059234,96.9059592 88.3714553,87.6162185 C97.7414128,78.3308654 103.544391,65.493714 103.544391,51.3358815 C103.544391,37.1615954 97.7436255,24.3189594 88.3714553,15.0336064 C79.0059234,5.74715639 66.0512851,0.000438764468 51.7634553,0.000438764468 L51.7634553,1.42861711" id="Fill-7" fill="#FEFEFE"></path>
                            <path d="M65.5925787,93.6768721 L65.5925787,95.2004817 C65.6047489,95.2004817 66.7598128,95.4001196 68.5466213,99.889777 C71.3280681,106.868326 71.243983,112.210283 75.1340255,117.159546 C81.1173447,124.475944 84.4276426,127.833589 83.203983,137.857163 C80.1437277,140.202359 79.5816851,140.414063 73.3051745,140.493041 C68.7977702,140.551177 67.4269617,139.795405 64.8347064,138.584415 C64.6787064,138.645842 63.6940255,139.279857 63.5756426,139.279857 C62.3541957,139.279857 60.4833021,136.580359 60.4777702,122.798767 C60.4755574,116.071411 61.1416,108.842766 62.2590468,103.462417 C62.828834,100.706976 63.5136851,98.4681801 64.2350468,96.9840593 C65.0382809,95.333208 65.5892596,95.2004817 65.5925787,95.2004817 L65.5925787,93.6768721" id="Fill-10" fill="#00B7F1"></path>
                            <path d="M51.7634553,92.5912591 C73.0469447,92.5912591 90.2932426,75.490414 90.2932426,54.3957153 C90.2932426,50.7627455 89.7632851,47.2767618 88.8129021,43.9322796 L14.7483064,43.9322796 C13.7647319,47.2767618 13.2203915,50.7627455 13.2203915,54.3957153 C13.2203915,75.490414 30.4622638,92.5912591 51.7634553,92.5912591" id="Fill-12" fill="#FEFEFE"></path>
                            <path d="M49.5970468,134.398383 C49.5970468,135.108085 50.1767915,135.683963 50.8937277,135.683963 L55.1101532,135.683963 C55.8281957,135.683963 56.4079404,135.108085 56.4079404,134.398383 L56.4079404,132.57422 C56.4079404,131.864518 55.8281957,131.289737 55.1101532,131.289737 L50.8937277,131.289737 C50.1767915,131.289737 49.5970468,131.864518 49.5970468,132.57422 L49.5970468,134.398383" id="Fill-14" fill="#FEFEFE"></path>
                            <path d="M49.5970468,134.398383 L49.1246213,134.398383 C49.1246213,135.365859 49.9156851,136.152344 50.8937277,136.152344 L55.1101532,136.152344 C56.0881957,136.152344 56.880366,135.365859 56.880366,134.398383 L56.880366,132.57422 C56.880366,131.606744 56.0881957,130.821356 55.1101532,130.821356 L50.8937277,130.821356 C49.9156851,130.821356 49.1246213,131.606744 49.1246213,132.57422 L49.1246213,134.398383 L50.068366,134.398383 L50.068366,132.57422 C50.0694723,132.125583 50.4390043,131.759215 50.8937277,131.759215 L55.1101532,131.759215 C55.5670894,131.759215 55.9355149,132.123389 55.9366213,132.57422 L55.9366213,134.398383 C55.9355149,134.849214 55.565983,135.214485 55.1101532,135.215582 L50.8937277,135.215582 C50.4390043,135.214485 50.0694723,134.849214 50.068366,134.398383 L49.5970468,134.398383" id="Fill-16" fill="#00B7F1"></path>
                            <path d="M34.2373532,99.3280488 C27.1797362,117.042067 16.1944596,123.217677 18.9615234,142.442142 C29.455566,138.713741 32.0765872,139.589076 39.0025447,142.35768 C50.4104596,146.919734 44.6882468,73.1019996 34.2373532,99.3280488" id="Fill-18" fill="#00B7F1"></path>
                            <path d="M38.6188511,93.6768721 L38.6188511,95.2004817 C38.6232766,95.2004817 39.1731489,95.333208 39.976383,96.9840593 C40.6977447,98.4681801 41.3825957,100.706976 41.952383,103.462417 C43.0709362,108.842766 43.7358723,116.071411 43.7336596,122.798767 C43.7281277,136.580359 41.2077872,141.038206 39.9874468,141.038206 C39.8690638,141.038206 39.7296596,141.005298 39.5758723,140.946065 C35.3494894,140.165064 31.2503404,139.342381 27.0980851,139.342381 C23.298766,139.342381 24.1672766,139.542019 19.9121277,140.890123 C19.554766,129.487731 23.4459149,123.091642 27.6678723,116.611091 C31.5579149,111.661828 32.8833617,106.868326 35.6670213,99.889777 C37.451617,95.4001196 38.6077872,95.2004817 38.6188511,95.2004817 L38.6188511,93.6768721 Z M38.6188511,93.6768721 C37.2967234,93.6746783 35.8208085,95.3518555 34.2375745,99.3281585 C27.1799574,117.042177 16.1935745,123.217787 18.9617447,142.442252 C23.9714468,140.663062 23.307617,140.007109 27.2496596,140.007109 C31.566766,140.007109 35.3826809,140.909867 39.0016596,142.35779 C39.3446383,142.496001 39.673234,142.561815 39.9874468,142.561815 C48.4888936,142.561815 45.7660851,93.6823567 38.6188511,93.6768721 L38.6188511,93.6768721 Z" id="Fill-20" fill="#FEFEFE"></path>
                            <path d="M81.0573787,117.34997 C78.8733787,108.459505 69.1316766,99.4900625 69.1316766,99.4900625 C68.1835064,96.4395526 58.4362723,93.322131 51.7581447,93.1312685 C45.080017,93.322131 35.332783,96.4395526 34.3812936,99.4900625 C34.3812936,99.4900625 23.2588255,110.12681 22.7454638,118.27686 C22.3748255,124.204568 28.1888681,126.138423 32.1618894,120.688968 C31.8377191,126.138423 32.6464851,134.881901 36.5829957,147.334037 C40.4553362,158.615768 45.0733787,148.51541 45.0733787,148.51541 C46.9973787,145.519746 48.956783,141.225339 51.7581447,141.225339 C54.5561872,141.225339 56.5189106,145.519746 58.4395915,148.51541 C58.4395915,148.51541 63.0587404,158.615768 66.9310809,147.334037 C70.8686979,134.881901 71.6752511,126.138423 71.3510809,120.688968 C77.5202723,124.538029 82.4746553,123.12082 81.0573787,117.34997" id="Fill-22" fill="#00B7F1"></path>
                            <path d="M81.0573787,117.34997 L81.9325277,117.138266 C81.3572085,114.800749 80.3028255,112.50272 79.0526128,110.360452 C75.3030809,103.940231 69.7778043,98.867017 69.7446128,98.8341097 L69.1316766,99.4900625 L69.9935489,99.225707 C69.8143149,98.657507 69.468017,98.1715753 69.0332085,97.7240356 C68.2642723,96.9485194 67.1955064,96.2695313 65.9154213,95.6399043 C63.9958468,94.7009484 61.601634,93.890331 59.1166979,93.2892237 C56.6295489,92.6914071 54.0583149,92.3041975 51.7824851,92.2383828 L51.7304851,92.2383828 C48.2675064,92.3403955 44.1052936,93.1817264 40.6224,94.3960071 C38.8820596,95.0036959 37.3121021,95.7046221 36.075166,96.4801383 C35.4566979,96.8717356 34.9201021,97.2786896 34.4808681,97.7240356 C34.047166,98.1715753 33.6986553,98.657507 33.521634,99.225707 L34.3812936,99.4900625 L33.7572936,98.8461757 C33.7362723,98.8648232 30.9293787,101.546771 28.0417191,105.283947 C26.596783,107.151987 25.1297191,109.283285 23.9790809,111.494658 C22.8339745,113.706031 21.9898043,115.996382 21.8470809,118.220918 C21.836017,118.420556 21.8282723,118.619096 21.8282723,118.811056 C21.8282723,120.579277 22.3515915,122.075464 23.2765277,123.13837 C24.1981447,124.202374 25.5246979,124.800191 26.9364426,124.795803 C27.9598468,124.795803 29.0219745,124.494153 30.0354213,123.896336 C31.0521872,123.298519 32.0246979,122.407828 32.8932085,121.212194 L32.1618894,120.688968 L31.2635064,120.637413 C31.2214638,121.356987 31.1982298,122.131406 31.1982298,122.960671 C31.1982298,128.565887 32.2714213,136.68303 35.7233362,147.59949 L35.7288681,147.621428 C36.4491234,149.707753 37.1959319,151.133737 38.0179745,152.097922 C38.4328681,152.580563 38.8676766,152.946932 39.336783,153.194833 C39.804783,153.446026 40.3048681,153.567783 40.7872511,153.567783 C41.2187404,153.567783 41.6281021,153.473449 41.9965277,153.322075 C42.6470809,153.056623 43.1869957,152.632118 43.6561021,152.168125 C44.3575489,151.469392 44.9029957,150.662066 45.2858043,150.019276 C45.6686128,149.379776 45.8843574,148.907008 45.8943149,148.886166 L45.0733787,148.51541 L45.8345702,148.995857 C46.8214638,147.4536 47.7884426,145.646988 48.8118468,144.278043 C49.3185702,143.595764 49.8396766,143.028661 50.3397617,142.660099 C50.8453787,142.29044 51.2945702,142.120418 51.7581447,142.118224 C52.2172936,142.120418 52.6675915,142.29044 53.1732085,142.660099 C53.9266553,143.209651 54.7132936,144.216616 55.4623149,145.377148 C56.2135489,146.533292 56.9382298,147.837519 57.6795064,148.995857 L58.4395915,148.51541 L57.6186553,148.886166 C57.6363574,148.91688 58.1264851,150.000628 58.9629106,151.126059 C59.3855489,151.689871 59.891166,152.26575 60.5029957,152.734131 C60.8105702,152.965579 61.1446979,153.170701 61.5164426,153.322075 C61.8881872,153.473449 62.2964426,153.567783 62.7279319,153.567783 C63.2081021,153.56888 63.7081872,153.446026 64.1772936,153.194833 C64.8809532,152.820787 65.5093787,152.186772 66.1001872,151.285111 C66.6898894,150.377966 67.2452936,149.184526 67.7841021,147.621428 L67.7907404,147.59949 C71.2426553,136.68303 72.3158468,128.568081 72.3158468,122.960671 C72.3158468,122.131406 72.2926128,121.356987 72.2494638,120.637413 L71.3510809,120.688968 L70.8709106,121.44474 C73.3060596,122.958477 75.5907404,123.733993 77.5446128,123.738381 C78.1962723,123.738381 78.8169532,123.649531 79.3845277,123.456475 C80.2364426,123.172375 80.9755064,122.639276 81.4678468,121.891182 C81.9612936,121.14638 82.2024851,120.222781 82.2024851,119.18949 C82.2024851,118.551088 82.1117617,117.868809 81.9325277,117.138266 L80.180017,117.560577 C80.3338043,118.174847 80.4001872,118.721109 80.4001872,119.18949 C80.4001872,119.698457 80.3205277,120.11638 80.1921872,120.456423 C79.9952511,120.963196 79.6998468,121.29885 79.2783149,121.55114 C78.8534638,121.800139 78.2759319,121.952609 77.5446128,121.952609 C76.0864,121.958094 74.0561872,121.32737 71.8312511,119.933196 C71.5458043,119.756593 71.1818043,119.750012 70.8919319,119.922227 C70.6020596,120.090054 70.4316766,120.410352 70.4504851,120.743813 C70.4914213,121.426092 70.5146553,122.166507 70.5146553,122.960671 C70.5146553,128.342117 69.4779745,136.289238 66.0714213,147.066391 L66.9310809,147.334037 L66.079166,147.044453 C65.4075915,149.003536 64.7194213,150.247433 64.1219745,150.941778 C63.8232511,151.288402 63.5521872,151.500106 63.3253787,151.619669 C63.0974638,151.739232 62.9126979,151.777624 62.7279319,151.782012 C62.5630809,151.779818 62.3893787,151.745814 62.1990809,151.667933 C61.8682723,151.535207 61.4909957,151.263173 61.133634,150.906677 C60.5981447,150.376869 60.1146553,149.672652 59.7794213,149.109936 C59.6123574,148.830224 59.4806979,148.581225 59.3910809,148.410107 C59.3457191,148.323451 59.3125277,148.253249 59.2915064,148.209372 L59.2660596,148.158914 L59.2627404,148.147945 L59.200783,148.038254 C58.264783,146.58375 57.2900596,144.742036 56.1526979,143.217329 C55.5806979,142.451685 54.9666553,141.757341 54.2508255,141.227533 C53.5405277,140.698821 52.6974638,140.331356 51.7581447,140.332453 C50.8188255,140.331356 49.9724426,140.698821 49.2621447,141.227533 C48.1933787,142.026084 47.3370383,143.182228 46.536017,144.408575 C45.7405277,145.637115 45.013634,146.945731 44.3132936,148.038254 L44.2546553,148.147945 L44.2513362,148.15343 C44.2104,148.24228 43.7357617,149.234984 43.0332085,150.153099 C42.6835915,150.611608 42.2786553,151.049275 41.8770383,151.34215 C41.6756766,151.49133 41.4798468,151.602118 41.2972936,151.674515 C41.1125277,151.746911 40.9465702,151.779818 40.7872511,151.782012 C40.6002723,151.777624 40.4177191,151.739232 40.1886979,151.619669 C39.8479319,151.440872 39.4064851,151.051469 38.9285277,150.314345 C38.4494638,149.581608 37.9383149,148.514313 37.4371234,147.044453 L36.5829957,147.334037 L37.4426553,147.066391 C34.0349957,136.289238 32.9983149,128.339923 32.9983149,122.960671 C32.9983149,122.166507 33.0215489,121.426092 33.0624851,120.743813 C33.0857191,120.346732 32.8434213,119.98146 32.4661447,119.848734 C32.0899745,119.713814 31.6662298,119.845443 31.432783,120.164644 C30.6859745,121.190256 29.887166,121.906539 29.1171234,122.359564 C28.3426553,122.814782 27.6002723,123.008935 26.9364426,123.008935 C26.0214638,123.00345 25.2425702,122.652439 24.6418043,121.97016 C24.0465702,121.286784 23.632783,120.235944 23.6305702,118.811056 C23.6305702,118.655295 23.6361021,118.495145 23.6460596,118.332803 C23.7611234,116.484507 24.5001872,114.38831 25.5811234,112.314051 C27.2008681,109.195533 29.5663149,106.13186 31.5201872,103.864544 C32.4993362,102.729241 33.3733787,101.793576 34.0018043,101.142011 C34.3171234,100.816228 34.5704851,100.561745 34.7430809,100.390627 C34.8304851,100.303971 34.8968681,100.24035 34.9411234,100.195376 L34.992017,100.147112 L35.0075064,100.131756 C35.1159319,100.026452 35.1978043,99.8970166 35.243166,99.7522243 C35.3006979,99.5569741 35.4688681,99.2794556 35.7742298,98.9712236 C36.3030809,98.4260587 37.228017,97.8128854 38.3974638,97.2435885 C40.1510809,96.3814163 42.4446128,95.6015124 44.8244426,95.026731 C47.203166,94.4519495 49.6748255,94.0855812 51.7824851,94.0241542 L51.7581447,93.1312685 L51.7304851,94.0241542 C54.945634,94.1141009 58.9961021,94.9258152 62.292017,96.0808626 C63.941634,96.6556441 65.4064851,97.3192753 66.4730383,97.9894881 C67.0063149,98.3251429 67.4378043,98.6607977 67.7420596,98.9712236 C68.0452085,99.2794556 68.2122723,99.5569741 68.2709106,99.7522243 C68.3173787,99.9025011 68.4025702,100.035227 68.5198468,100.143822 L68.5430809,100.166857 C68.8075064,100.411468 71.227166,102.693043 73.8227404,105.956354 C75.121634,107.588558 76.4636766,109.464276 77.6032511,111.446394 C78.7450383,113.430707 79.6810383,115.518129 80.180017,117.560577 L81.0573787,117.34997" id="Fill-24" fill="#FEFEFE"></path>
                            <path d="M51.321617,0.993548387 C79.1106383,0.993548387 101.65983,23.3343382 101.65983,50.9008128 C101.65983,78.4343801 79.1106383,100.791624 51.321617,100.791624 C23.5171064,100.791624 1,78.4343801 1,50.9008128 C1,23.3343382 23.5171064,0.993548387 51.321617,0.993548387" id="Fill-27" fill="#00B7F1"></path>
                            <path d="M51.7634553,1.42861711 L51.7634553,2.85898927 C65.2635404,2.85898927 77.4791149,8.28102119 86.3334979,17.0563106 C95.1856681,25.8326968 100.657838,37.9425962 100.660051,51.3358815 C100.657838,64.7105194 95.1856681,76.817128 86.3334979,85.5957081 C77.4791149,94.3709975 65.2635404,99.7963201 51.7634553,99.798514 C38.2556255,99.7963201 26.0466894,94.3709975 17.1956255,85.5957081 C8.3512,76.8193219 2.88566809,64.7127133 2.8845617,51.3358815 C2.88566809,37.9425962 8.3512,25.8326968 17.1956255,17.0563106 C26.0466894,8.28102119 38.2556255,2.85898927 51.7634553,2.85898927 L51.7634553,0.000438764468 C37.4678809,0.000438764468 24.5176681,5.74715639 15.1565617,15.0336064 C5.79213617,24.3189594 0.000221276596,37.1615954 0.000221276596,51.3358815 C0.000221276596,65.4915202 5.79213617,78.3308654 15.1565617,87.6162185 C24.5176681,96.9059592 37.4678809,102.658161 51.7634553,102.658161 C66.0512851,102.658161 79.0059234,96.9059592 88.3714553,87.6162185 C97.7414128,78.3308654 103.544391,65.493714 103.544391,51.3358815 C103.544391,37.1615954 97.7436255,24.3189594 88.3714553,15.0336064 C79.0059234,5.74715639 66.0512851,0.000438764468 51.7634553,0.000438764468 L51.7634553,1.42861711" id="Fill-29" fill="#FEFEFE"></path>
                            <path d="M51.7634553,92.5912591 C73.0469447,92.5912591 90.2932426,75.490414 90.2932426,54.3957153 C90.2932426,50.7627455 89.7632851,47.2767618 88.8129021,43.9322796 L14.7483064,43.9322796 C13.7647319,47.2767618 13.2203915,50.7627455 13.2203915,54.3957153 C13.2203915,75.490414 30.4622638,92.5912591 51.7634553,92.5912591" id="Fill-32" fill="#FEFEFE"></path>
                            <path d="M32.0924085,127.370363 C32.0924085,127.370363 39.9764936,125.806168 51.9796426,125.806168 C63.9827915,125.806168 71.4508766,127.370363 71.4508766,127.370363" id="Fill-34" fill="#00B7F1"></path>
                            <path d="M32.2694298,128.245808 L32.2871319,128.241421 C32.7164085,128.161346 40.4290043,126.701357 51.9796426,126.701357 C57.9419404,126.701357 62.7746213,127.090761 66.1114723,127.476874 C67.7810043,127.668833 69.0732596,127.861889 69.9484085,128.008875 C70.3843234,128.080175 70.7173447,128.139408 70.9386213,128.179994 C71.0492596,128.203029 71.1333447,128.218385 71.1875574,128.228258 L71.2484085,128.241421 L71.2650043,128.245808 L71.6367489,126.495138 C71.5880681,126.485266 64.0624511,124.914489 51.9796426,124.914489 C39.8990468,124.914489 31.9585362,126.485266 31.9153872,126.492944 L32.2694298,128.248002 L32.2694298,128.245808" id="Fill-36" fill="#FEFEFE"></path>
                            <path d="M56.2091234,125.806607 C56.2091234,128.247234 54.2154213,130.223868 51.7581447,130.223868 C49.2975489,130.223868 47.3038468,128.247234 47.3038468,125.806607 C47.3038468,123.36927 49.2975489,121.393733 51.7581447,121.393733 C54.2154213,121.393733 56.2091234,123.36927 56.2091234,125.806607" id="Fill-38" fill="#FEFEFE"></path>
                            <path d="M102.229106,31.5615095 C102.229106,37.1009109 97.6995745,41.5894714 92.1145532,41.5894714 C86.5295319,41.5894714 82,37.1009109 82,31.5615095 C82,26.0264957 92.1145532,3.97419355 92.1145532,3.97419355 C92.1145532,3.97419355 102.229106,26.0264957 102.229106,31.5615095" id="Fill-40" fill="#FEFEFE"></path>
                        </g>
                    </g>
                </g>
            </g>
        </g>
    </g>
</svg>